<svg xmlns="http://www.w3.org/2000/svg" width="11.985" height="18" viewBox="0 0 11.985 18" fill="none">
  <path d="M 6.01 0 C 7.06 0.002 8.091 0.281 8.999 0.809 C 9.907 0.286 10.937 0.012 11.985 0.016 L 11.985 18 C 5.367 17.979 -0.02 12.634 0 6.01 L 0 0.016 C 1.048 0.012 2.078 0.286 2.987 0.809 C 3.904 0.275 4.948 -0.004 6.01 0 Z M 8.574 2.184 C 7.243 2.181 6.13 3.194 6.008 4.519 L 5.996 4.503 L 5.985 4.519 C 5.886 3.371 5.037 2.429 3.905 2.213 C 2.774 1.998 1.637 2.561 1.123 3.592 C 0.609 4.623 0.844 5.87 1.698 6.643 C 2.551 7.417 3.815 7.528 4.791 6.915 L 5.986 8.117 L 7.188 6.922 C 8.11 7.509 9.303 7.449 10.162 6.771 C 11.02 6.093 11.355 4.946 10.997 3.913 C 10.64 2.879 9.667 2.186 8.574 2.183 L 8.574 2.184 Z M 8.562 6.468 C 8.017 6.467 7.506 6.207 7.183 5.768 C 6.861 5.329 6.767 4.763 6.93 4.243 C 7.085 4.591 7.451 4.795 7.829 4.743 C 8.206 4.69 8.503 4.395 8.558 4.018 C 8.613 3.641 8.411 3.273 8.064 3.116 C 8.709 2.917 9.41 3.115 9.856 3.622 C 10.302 4.128 10.409 4.85 10.129 5.464 C 9.85 6.078 9.236 6.471 8.561 6.468 L 8.562 6.468 Z M 3.42 6.454 C 2.746 6.452 2.136 6.054 1.861 5.439 C 1.586 4.823 1.697 4.104 2.146 3.6 C 2.594 3.097 3.296 2.903 3.939 3.104 C 3.59 3.259 3.386 3.626 3.439 4.003 C 3.491 4.381 3.787 4.679 4.164 4.733 C 4.542 4.787 4.909 4.585 5.066 4.237 C 5.225 4.758 5.128 5.323 4.803 5.76 C 4.479 6.197 3.967 6.454 3.422 6.453 L 3.42 6.454 Z" fill="currentColor" fill-rule="evenodd"></path>
</svg>