<svg width="132" height="20" viewBox="0 0 132 20" fill="none" xmlns="http://www.w3.org/2000/svg">
<path d="M10 20C15.523 20 20 15.523 20 10C20 4.477 15.523 0 10 0C4.477 0 0 4.477 0 10C0 15.523 4.477 20 10 20Z" fill="#0A66C2"></path>
<path fill-rule="evenodd" clip-rule="evenodd" d="M6.97347 5.39759C6.97878 5.79554 6.84294 6.1277 6.56703 6.39512C6.29112 6.66254 5.92819 6.79519 5.47825 6.79519H5.46233C5.02299 6.79519 4.66961 6.66254 4.40113 6.39512C4.13371 6.1277 4 5.79554 4 5.39759C4 4.99434 4.13796 4.66112 4.41387 4.39689C4.68978 4.13159 5.05058 4 5.49416 4C5.93987 4 6.29537 4.13265 6.56279 4.39689C6.83127 4.66219 6.96604 4.99434 6.97241 5.39759H6.97347ZM6.8041 7.8988V16H4.1543V7.8988H6.8041ZM10.9121 9.04677C11.0133 8.88167 11.1166 8.74161 11.223 8.61515C11.3355 8.48462 11.4883 8.34242 11.6772 8.19067C11.8682 8.03786 12.1017 7.919 12.3776 7.83517C12.6535 7.75027 12.9591 7.70782 13.2966 7.70782C14.2124 7.70782 14.9489 8.01769 15.506 8.63531C16.0631 9.25399 16.3422 10.1602 16.3422 11.3541V15.9968H13.6977V11.664C13.6977 11.0909 13.5895 10.6452 13.373 10.3194C13.1554 9.99576 12.8169 9.8334 12.3564 9.8334C12.0189 9.8334 11.7366 9.92572 11.5074 10.1146C11.2803 10.3024 11.1105 10.5349 10.998 10.8129C10.9397 10.9763 10.91 11.197 10.91 11.4751V15.9958H8.26758C8.27819 13.8203 8.28243 12.0587 8.28243 10.7068C8.28243 9.35586 8.28243 8.54935 8.27713 8.28724L8.2697 7.8946H10.9121V9.04677Z" fill="white"></path>
<path fill-rule="evenodd" clip-rule="evenodd" d="M38 20C43.5228 20 48 15.5228 48 10C48 4.47715 43.5228 0 38 0C32.4772 0 28 4.47715 28 10C28 15.5228 32.4772 20 38 20Z" fill="white"></path>
<path d="M48 10C47.9997 8.08902 47.4518 6.21832 46.4213 4.60902C45.3908 2.99972 43.9207 1.71941 42.1851 0.919639C40.4495 0.119873 38.5211 -0.165849 36.6282 0.0962983C34.7353 0.358446 32.9571 1.15748 31.5042 2.39882C30.0513 3.64015 28.9845 5.2718 28.4301 7.1006C27.8757 8.92939 27.8569 10.8788 28.3759 12.7179C28.895 14.557 29.9301 16.2089 31.3588 17.4781C32.7876 18.7472 34.55 19.5803 36.4375 19.8789V12.8908H33.8987V10.0002H36.4375V7.79706C36.4375 5.29081 37.9306 3.90644 40.2144 3.90644C40.9644 3.91684 41.7126 3.98201 42.4531 4.10144V6.56269H41.1919C40.977 6.53414 40.7584 6.55433 40.5523 6.62175C40.3462 6.68917 40.158 6.8021 40.0015 6.95216C39.845 7.10223 39.7243 7.28558 39.6483 7.48864C39.5723 7.6917 39.543 7.90925 39.5625 8.12519V10.0002H42.3363L41.8925 12.8908H39.5625V19.8789C41.9149 19.5068 44.0572 18.3073 45.604 16.4964C47.1507 14.6854 48.0004 12.3816 48 10Z" fill="#1877F2"></path>
<path d="M76 10C76 15.523 71.523 20 66 20C60.477 20 56 15.523 56 10C56 4.477 60.477 0 66 0C71.523 0 76 4.477 76 10Z" fill="#D93175"></path>
<path fill-rule="evenodd" clip-rule="evenodd" d="M71.9613 12.4753C71.9884 12.0174 72 11.1926 72 9.99806C72 8.80736 71.9884 7.98257 71.9613 7.52469C71.909 6.4395 71.5837 5.60019 70.9894 5.00678C70.3959 4.41336 69.5595 4.091 68.4753 4.03872C68.0174 4.01162 67.1926 4 65.9981 4C64.8074 4 63.9826 4.01162 63.5247 4.03872C62.4395 4.091 61.6002 4.41336 61.0068 5.00678C60.4134 5.60019 60.091 6.44046 60.0387 7.52469C60.0116 7.98257 60 8.80736 60 9.99806C60 11.1926 60.0116 12.0174 60.0387 12.4753C60.091 13.5605 60.4134 14.3959 61.0068 14.9894C61.6002 15.5837 62.4405 15.909 63.5247 15.9613C63.9826 15.9884 64.8074 16 65.9981 16C67.1926 16 68.0174 15.9884 68.4753 15.9613C69.5605 15.909 70.3959 15.5837 70.9894 14.9894C71.5837 14.3959 71.909 13.5595 71.9613 12.4753ZM65.9987 5.07844C65.9648 5.07844 65.7644 5.07844 65.4014 5.07457C65.1265 5.07069 64.8515 5.07069 64.5766 5.07457C64.3258 5.08044 64.0751 5.08819 63.8244 5.0978C63.5545 5.10625 63.2854 5.13277 63.019 5.17718C62.7993 5.21494 62.6144 5.26431 62.4634 5.32046C61.9429 5.52972 61.5303 5.94228 61.3211 6.46276C61.2639 6.61378 61.2146 6.79867 61.1778 7.01842C61.1362 7.24108 61.1129 7.51019 61.0984 7.82384C61.0888 8.07451 61.081 8.32524 61.0752 8.57602C61.0713 8.76576 61.0713 9.04069 61.0752 9.4008C61.079 9.76382 61.079 9.96421 61.079 9.99809C61.079 10.0368 61.079 10.2362 61.0752 10.5954C61.0713 10.9584 61.0713 11.2343 61.0752 11.4202C61.079 11.6089 61.0868 11.8587 61.0984 12.1762C61.1129 12.4899 61.1362 12.759 61.1778 12.9816C61.2155 13.2014 61.2649 13.3863 61.3211 13.5373C61.5303 14.0578 61.9429 14.4703 62.4634 14.6796C62.6144 14.7367 62.7993 14.7861 63.019 14.8229C63.2417 14.8616 63.5108 14.8877 63.8244 14.9023C64.1381 14.9139 64.3917 14.9216 64.5766 14.9255C64.7664 14.9294 65.0413 14.9294 65.4014 14.9255C65.7644 14.9216 65.9648 14.9216 65.9987 14.9216C66.0374 14.9216 66.2368 14.9216 66.596 14.9255C66.959 14.9294 67.2349 14.9294 67.4208 14.9255C67.6095 14.9216 67.8593 14.9139 68.1768 14.9023C68.4905 14.8877 68.7596 14.8606 68.9822 14.8229C69.202 14.7851 69.3869 14.7358 69.5379 14.6796C70.0584 14.4703 70.4709 14.0578 70.6802 13.5373C70.7373 13.3863 70.7867 13.2014 70.8235 12.9816C70.8622 12.759 70.8883 12.4899 70.9029 12.1762C70.9145 11.8587 70.9222 11.6089 70.9261 11.4202C70.93 11.2343 70.93 10.9584 70.9261 10.5954C70.9222 10.2372 70.9222 10.0358 70.9222 9.99809C70.9222 9.96421 70.9222 9.76382 70.9261 9.4008C70.9301 9.12589 70.9301 8.85094 70.9261 8.57602C70.9202 8.32524 70.9125 8.07451 70.9029 7.82384C70.8922 7.55405 70.8657 7.28511 70.8235 7.01842C70.793 6.82917 70.7451 6.64315 70.6802 6.46276C70.4709 5.94228 70.0584 5.52972 69.5379 5.32046C69.3575 5.2556 69.1715 5.20764 68.9822 5.17718C68.7158 5.1331 68.4467 5.10658 68.1768 5.0978C67.8593 5.08619 67.6095 5.07844 67.4208 5.07457C67.1459 5.07068 66.8709 5.07068 66.596 5.07457C66.2378 5.07844 66.0364 5.07844 65.9987 5.07844ZM69.7119 7.30591C69.8483 7.17126 69.9232 6.98639 69.9191 6.79478C69.9191 6.59826 69.8523 6.42885 69.7119 6.28849C69.5783 6.15056 69.3937 6.07386 69.2018 6.07648C69.011 6.07458 68.8279 6.15126 68.6955 6.28849C68.5551 6.42885 68.4825 6.59826 68.4825 6.79478C68.4799 6.98677 68.5566 7.17135 68.6945 7.30494C68.827 7.44277 69.0105 7.51983 69.2018 7.51791C69.3937 7.52053 69.5783 7.44383 69.7119 7.30591ZM69.0772 9.99807C69.0772 10.8529 68.7781 11.5789 68.1808 12.1801C67.6078 12.7663 66.8185 13.0906 65.9988 13.0765C65.1803 13.0904 64.3923 12.7661 63.8207 12.1801C63.2344 11.607 62.9102 10.8177 62.9243 9.99807C62.9243 9.14715 63.2234 8.41723 63.8207 7.81995C64.3923 7.2339 65.1803 6.90959 65.9988 6.92353C66.8536 6.92353 67.5796 7.22266 68.1808 7.81995C68.7668 8.39154 69.0912 9.17955 69.0772 9.99807ZM67.9984 9.99808C68.0082 9.46687 67.7959 8.95567 67.4127 8.58763C67.0434 8.2046 66.5314 7.99243 65.9994 8.00196C65.4466 8.00196 64.9771 8.1946 64.5879 8.58763C64.2048 8.95567 63.9925 9.46687 64.0023 9.99808C64.0023 10.5499 64.1949 11.0233 64.5879 11.4124C64.956 11.7956 65.4672 12.0079 65.9984 11.9981C66.5307 12.0078 67.0431 11.7956 67.4127 11.4124C67.8058 11.0233 67.9984 10.5499 67.9984 9.99808Z" fill="white"></path>
<path d="M104 10C104 15.523 99.523 20 94 20C88.477 20 84 15.523 84 10C84 4.477 88.477 0 94 0C99.523 0 104 4.477 104 10Z" fill="black"></path>
<path d="M94.9881 9.08118L99.3593 4H98.3234L94.5279 8.41192L91.4964 4H88L92.5842 10.6716L88 16H89.0359L93.0441 11.3409L96.2455 16H99.742L94.9881 9.08118ZM89.4091 4.77981H91.0002L98.3239 15.2557H96.7329L89.4091 4.77981Z" fill="white"></path>
<path fill-rule="evenodd" clip-rule="evenodd" d="M122 20C127.523 20 132 15.5228 132 10C132 4.47715 127.523 0 122 0C116.477 0 112 4.47715 112 10C112 15.5228 116.477 20 122 20Z" fill="#241F21"></path>
<path d="M125.599 6.4286C124.952 6.00716 124.486 5.33277 124.34 4.54671C124.309 4.37694 124.292 4.20219 124.292 4.02325H122.229L122.225 12.2913C122.191 13.2172 121.429 13.9602 120.494 13.9602C120.204 13.9602 119.931 13.8876 119.69 13.7608C119.138 13.4705 118.76 12.8919 118.76 12.226C118.76 11.2697 119.538 10.4917 120.494 10.4917C120.673 10.4917 120.844 10.5213 121.006 10.572V8.46577C120.839 8.44308 120.668 8.42876 120.494 8.42876C118.401 8.42876 116.697 10.1322 116.697 12.226C116.697 13.5107 117.339 14.6476 118.318 15.335C118.935 15.768 119.685 16.0233 120.494 16.0233C122.588 16.0233 124.292 14.3198 124.292 12.226V8.03339C125.101 8.61429 126.092 8.95639 127.162 8.95639V6.89348C126.586 6.89348 126.049 6.7221 125.599 6.4286Z" fill="white"></path>
</svg>