<svg width="36" height="36" viewBox="0 0 36 36" fill="none" xmlns="http://www.w3.org/2000/svg">
<rect width="36" height="36" rx="18" fill="#8B3DFF"></rect>
<path fill-rule="evenodd" clip-rule="evenodd" d="M23.2901 22.278C22.6382 23.1611 21.7943 24.0812 20.68 24.7725C19.605 25.4637 18.3774 26 16.9186 26C15.5754 26 14.4635 25.3087 13.8485 24.7331C12.9284 23.8499 12.429 22.583 12.2741 21.3948C11.814 17.7122 14.0773 12.8364 17.5705 10.7282C18.3774 10.2288 19.2581 10 20.1043 10C21.7919 10 23.0588 11.1906 23.2114 12.647C23.3638 13.9508 22.867 15.0652 21.4082 15.7934C20.68 16.1771 20.2962 16.1378 20.1806 15.9852C20.1043 15.8696 20.1412 15.6777 20.2962 15.5621C21.6394 14.4502 21.6787 13.5277 21.5238 12.2239C21.4082 11.3801 20.8718 10.8413 20.2569 10.8413C17.6099 10.8413 13.7722 16.7897 14.3085 21.0874C14.5028 22.7774 15.5385 24.7355 17.6886 24.7355C18.3798 24.7355 19.1474 24.5437 19.7993 24.1993C21.295 23.4318 21.9494 22.8954 22.83 21.6654C22.9457 21.5129 23.0613 21.321 23.1744 21.1661C23.2507 21.0135 23.4057 20.9742 23.5188 20.9742C23.632 20.9742 23.787 21.0898 23.787 21.2817C23.787 21.3973 23.7476 21.6261 23.5951 21.8179C23.5606 21.8942 23.445 22.1254 23.2901 22.278Z" fill="white"></path>
</svg>