<svg width="40" height="40" viewBox="0 0 40 40" fill="none" xmlns="http://www.w3.org/2000/svg">
<path d="M19.991 11.6665C15.391 11.6665 11.666 15.3998 11.666 19.9998C11.666 24.5998 15.391 28.3332 19.991 28.3332C24.5993 28.3332 28.3327 24.5998 28.3327 19.9998C28.3327 15.3998 24.5993 11.6665 19.991 11.6665ZM19.9993 26.6665C16.316 26.6665 13.3327 23.6832 13.3327 19.9998C13.3327 16.3165 16.316 13.3332 19.9993 13.3332C23.6827 13.3332 26.666 16.3165 26.666 19.9998C26.666 23.6832 23.6827 26.6665 19.9993 26.6665ZM22.916 19.1665C23.6077 19.1665 24.166 18.6082 24.166 17.9165C24.166 17.2248 23.6077 16.6665 22.916 16.6665C22.2243 16.6665 21.666 17.2248 21.666 17.9165C21.666 18.6082 22.2243 19.1665 22.916 19.1665ZM17.0827 19.1665C17.7743 19.1665 18.3327 18.6082 18.3327 17.9165C18.3327 17.2248 17.7743 16.6665 17.0827 16.6665C16.391 16.6665 15.8327 17.2248 15.8327 17.9165C15.8327 18.6082 16.391 19.1665 17.0827 19.1665ZM19.9993 24.5832C21.941 24.5832 23.591 23.3665 24.2577 21.6665H15.741C16.4077 23.3665 18.0577 24.5832 19.9993 24.5832Z" fill="#1C1C1C"></path>
</svg>