<svg width="16" height="16" viewBox="0 0 16 16" fill="none" xmlns="http://www.w3.org/2000/svg">
<g clip-path="url(#clip0_12189_68579)">
<path d="M12.666 5.99984L13.4993 4.1665L15.3327 3.33317L13.4993 2.49984L12.666 0.666504L11.8327 2.49984L9.99935 3.33317L11.8327 4.1665L12.666 5.99984Z" fill="#A1A1A1"></path>
<path d="M12.666 9.99984L11.8327 11.8332L9.99935 12.6665L11.8327 13.4998L12.666 15.3332L13.4993 13.4998L15.3327 12.6665L13.4993 11.8332L12.666 9.99984Z" fill="#A1A1A1"></path>
<path d="M7.66602 6.33317L5.99935 2.6665L4.33268 6.33317L0.666016 7.99984L4.33268 9.6665L5.99935 13.3332L7.66602 9.6665L11.3327 7.99984L7.66602 6.33317ZM6.65935 8.65984L5.99935 10.1132L5.33935 8.65984L3.88602 7.99984L5.33935 7.33984L5.99935 5.8865L6.65935 7.33984L8.11268 7.99984L6.65935 8.65984Z" fill="#A1A1A1"></path>
</g>
<defs>
<clipPath id="clip0_12189_68579">
<rect width="16" height="16" fill="white"></rect>
</clipPath>
</defs>
</svg>