<svg xmlns="http://www.w3.org/2000/svg" viewBox="0 0 24 24" fill="currentColor"><g transform="translate(1,1)"><path d="M 18 8 L 19.25 5.25 L 22 4 L 19.25 2.75 L 18 0 L 16.75 2.75 L 14 4 L 16.75 5.25 L 18 8 Z M 18 14 L 16.75 16.75 L 14 18 L 16.75 19.25 L 18 22 L 19.25 19.25 L 22 18 L 19.25 16.75 L 18 14 Z M 10.5 8.5 L 8 3 L 5.5 8.5 L 0 11 L 5.5 13.5 L 8 19 L 10.5 13.5 L 16 11 L 10.5 8.5 Z M 8.99 11.99 L 8 14.17 L 7.01 11.99 L 4.83 11 L 7.01 10.01 L 8 7.83 L 8.99 10.01 L 11.17 11 L 8.99 11.99 Z"></path></g></svg>