<svg xmlns="http://www.w3.org/2000/svg" width="18" height="18" viewBox="0 0 18 18" fill="none">
  <path d="M 0.783 0 L 17.106 0 C 17.553 0 17.888 0.337 18 0.787 L 18 17.212 C 18 17.663 17.665 18 17.217 18 L 0.783 18 C 0.335 18 0 17.663 0 17.325 L 0 0.787 C 0 0.337 0.335 0 0.783 0 Z M 2.683 15.3 L 5.366 15.3 L 5.366 6.75 L 2.683 6.75 L 2.683 15.3 Z M 4.025 5.625 C 3.13 5.625 2.46 4.838 2.46 4.05 C 2.46 3.15 3.13 2.475 4.025 2.475 C 4.919 2.475 5.59 3.15 5.59 4.05 C 5.478 4.838 4.807 5.625 4.025 5.625 Z M 12.522 15.3 L 15.093 15.3 L 15.093 10.575 C 15.093 8.325 14.646 6.525 11.963 6.525 C 10.733 6.525 9.839 7.2 9.503 7.875 L 9.503 6.75 L 6.932 6.75 L 6.932 15.412 L 9.615 15.412 L 9.615 11.137 C 9.615 10.012 9.839 8.887 11.18 8.887 C 12.522 8.887 12.522 10.125 12.522 11.137 L 12.522 15.3 Z" fill="currentColor" fill-rule="evenodd"></path>
</svg>