<svg xmlns="http://www.w3.org/2000/svg" width="20" height="20" viewBox="0 0 20 20" fill="none">
  <path d="M 10 0 C 4.5 0 0 4.5 0 10 C 0 14.25 2.625 17.875 6.375 19.25 C 6.25 18.5 6.25 17.25 6.375 16.375 C 6.5 15.625 7.5 11.375 7.5 11.375 C 7.5 11.375 7.25 10.875 7.25 10 C 7.25 8.625 8.125 7.5 9.125 7.5 C 10 7.5 10.375 8.125 10.375 8.875 C 10.375 9.75 9.875 11 9.5 12.25 C 9.25 13.25 10 14 11 14 C 12.75 14 14.125 12.125 14.125 9.375 C 14.125 7 12.375 5.25 10 5.25 C 7.125 5.25 5.5 7.375 5.5 9.625 C 5.5 10.5 5.875 11.375 6.25 11.875 C 6.25 12.125 6.25 12.25 6.25 12.375 C 6.125 12.75 6 13.375 6 13.5 C 6 13.625 5.875 13.75 5.625 13.625 C 4.375 13 3.625 11.25 3.625 9.75 C 3.625 6.625 5.875 3.75 10.25 3.75 C 13.75 3.75 16.375 6.25 16.375 9.5 C 16.375 13 14.25 15.75 11.125 15.75 C 10.125 15.75 9.125 15.25 8.875 14.625 C 8.875 14.625 8.375 16.5 8.25 17 C 8 17.875 7.375 19 7 19.625 C 8 19.875 9 20 10 20 C 15.5 20 20 15.5 20 10 C 20 4.5 15.5 0 10 0 Z" fill="currentColor" fill-rule="nonzero"></path>
</svg>