<svg xmlns="http://www.w3.org/2000/svg" width="17.441" height="20" viewBox="0 0 17.441 20" fill="none">
  <path d="M 14.836 4.009 C 13.758 3.307 12.981 2.183 12.738 0.872 C 12.686 0.589 12.657 0.298 12.657 0 L 9.219 0 L 9.213 13.78 C 9.155 15.323 7.886 16.562 6.328 16.562 C 5.845 16.562 5.389 16.441 4.988 16.229 C 4.068 15.745 3.438 14.781 3.438 13.671 C 3.438 12.077 4.735 10.781 6.328 10.781 C 6.626 10.781 6.911 10.83 7.181 10.915 L 7.181 7.404 C 6.902 7.366 6.618 7.343 6.328 7.343 C 2.839 7.343 0 10.182 0 13.671 C 0 15.812 1.07 17.707 2.702 18.853 C 3.73 19.575 4.98 20 6.328 20 C 9.818 20 12.657 17.161 12.657 13.671 L 12.657 6.684 C 14.006 7.652 15.658 8.222 17.441 8.222 L 17.441 4.784 C 16.481 4.784 15.586 4.498 14.836 4.009 Z" fill="currentColor" fill-rule="nonzero"></path>
</svg>