<svg xmlns="http://www.w3.org/2000/svg" width="20" height="20" viewBox="0 0 20 20" fill="none">
  <path d="M 20 10 C 20 15.523 15.523 20 10 20 C 4.477 20 0 15.523 0 10 C 0 4.477 4.477 0 10 0 C 15.523 0 20 4.477 20 10 Z" fill="currentColor" fill-rule="nonzero"></path>
  <path d="M 15.961 12.475 C 15.988 12.017 16 11.193 16 9.998 C 16 8.807 15.988 7.983 15.961 7.525 C 15.909 6.439 15.584 5.6 14.989 5.007 C 14.396 4.413 13.56 4.091 12.475 4.039 C 12.017 4.012 11.193 4 9.998 4 C 8.807 4 7.983 4.012 7.525 4.039 C 6.439 4.091 5.6 4.413 5.007 5.007 C 4.413 5.6 4.091 6.44 4.039 7.525 C 4.012 7.983 4 8.807 4 9.998 C 4 11.193 4.012 12.017 4.039 12.475 C 4.091 13.561 4.413 14.396 5.007 14.989 C 5.6 15.584 6.44 15.909 7.525 15.961 C 7.983 15.988 8.807 16 9.998 16 C 11.193 16 12.017 15.988 12.475 15.961 C 13.561 15.909 14.396 15.584 14.989 14.989 C 15.584 14.396 15.909 13.56 15.961 12.475 Z M 9.999 5.078 C 9.965 5.078 9.764 5.078 9.401 5.075 C 9.126 5.071 8.852 5.071 8.577 5.075 C 8.326 5.08 8.075 5.088 7.824 5.098 C 7.554 5.106 7.285 5.133 7.019 5.177 C 6.799 5.215 6.614 5.264 6.463 5.32 C 5.943 5.53 5.53 5.942 5.321 6.463 C 5.264 6.614 5.215 6.799 5.178 7.018 C 5.136 7.241 5.113 7.51 5.098 7.824 C 5.089 8.075 5.081 8.325 5.075 8.576 C 5.071 8.766 5.071 9.041 5.075 9.401 C 5.079 9.764 5.079 9.964 5.079 9.998 C 5.079 10.037 5.079 10.236 5.075 10.595 C 5.071 10.958 5.071 11.234 5.075 11.42 C 5.079 11.609 5.087 11.859 5.098 12.176 C 5.113 12.49 5.136 12.759 5.178 12.982 C 5.216 13.201 5.265 13.386 5.321 13.537 C 5.53 14.058 5.943 14.47 6.463 14.68 C 6.614 14.737 6.799 14.786 7.019 14.823 C 7.242 14.862 7.511 14.888 7.824 14.902 C 8.138 14.914 8.392 14.922 8.577 14.925 C 8.766 14.929 9.041 14.929 9.401 14.925 C 9.764 14.922 9.965 14.922 9.999 14.922 C 10.037 14.922 10.237 14.922 10.596 14.925 C 10.959 14.929 11.235 14.929 11.421 14.925 C 11.61 14.922 11.859 14.914 12.177 14.902 C 12.49 14.888 12.76 14.861 12.982 14.823 C 13.202 14.785 13.387 14.736 13.538 14.68 C 14.058 14.47 14.471 14.058 14.68 13.537 C 14.737 13.386 14.787 13.201 14.823 12.982 C 14.862 12.759 14.888 12.49 14.903 12.176 C 14.914 11.859 14.922 11.609 14.926 11.42 C 14.93 11.234 14.93 10.958 14.926 10.595 C 14.922 10.237 14.922 10.036 14.922 9.998 C 14.922 9.964 14.922 9.764 14.926 9.401 C 14.93 9.126 14.93 8.851 14.926 8.576 C 14.92 8.325 14.912 8.075 14.903 7.824 C 14.892 7.554 14.866 7.285 14.823 7.018 C 14.793 6.829 14.745 6.643 14.68 6.463 C 14.471 5.942 14.058 5.53 13.538 5.32 C 13.358 5.256 13.171 5.208 12.982 5.177 C 12.716 5.133 12.447 5.107 12.177 5.098 C 11.859 5.086 11.61 5.078 11.421 5.075 C 11.146 5.071 10.871 5.071 10.596 5.075 C 10.238 5.078 10.036 5.078 9.999 5.078 Z M 13.712 7.306 C 13.848 7.171 13.923 6.986 13.919 6.795 C 13.919 6.598 13.852 6.429 13.712 6.288 C 13.578 6.151 13.394 6.074 13.202 6.076 C 13.011 6.075 12.828 6.151 12.695 6.288 C 12.555 6.429 12.482 6.598 12.482 6.795 C 12.48 6.987 12.557 7.171 12.694 7.305 C 12.827 7.443 13.011 7.52 13.202 7.518 C 13.394 7.521 13.578 7.444 13.712 7.306 Z M 13.077 9.998 C 13.077 10.853 12.778 11.579 12.181 12.18 C 11.608 12.766 10.818 13.091 9.999 13.076 C 9.18 13.09 8.392 12.766 7.821 12.18 C 7.234 11.607 6.91 10.818 6.924 9.998 C 6.924 9.147 7.223 8.417 7.821 7.82 C 8.392 7.234 9.18 6.91 9.999 6.924 C 10.854 6.924 11.58 7.223 12.181 7.82 C 12.767 8.392 13.091 9.18 13.077 9.998 Z M 11.998 9.998 C 12.008 9.467 11.796 8.956 11.413 8.588 C 11.043 8.205 10.531 7.992 9.999 8.002 C 9.447 8.002 8.977 8.195 8.588 8.588 C 8.205 8.956 7.993 9.467 8.002 9.998 C 8.002 10.55 8.195 11.023 8.588 11.412 C 8.956 11.796 9.467 12.008 9.998 11.998 C 10.531 12.008 11.043 11.796 11.413 11.412 C 11.806 11.023 11.998 10.55 11.998 9.998 Z" fill="currentColor" fill-rule="evenodd"></path>
</svg>