<svg xmlns="http://www.w3.org/2000/svg" width="20" height="14.017" viewBox="0 0 20 14.017" fill="none">
  <path d="M 19.563 2.196 C 19.332 1.335 18.653 0.656 17.792 0.424 C 16.238 0 9.987 0 9.987 0 C 9.987 0 3.735 0.013 2.183 0.437 C 1.322 0.668 0.643 1.347 0.412 2.208 C 0 3.762 0 7.009 0 7.009 C 0 7.009 0 10.257 0.424 11.822 C 0.656 12.682 1.335 13.361 2.196 13.593 C 3.75 14.017 10 14.017 10 14.017 C 10 14.017 16.252 14.017 17.804 13.593 C 18.665 13.361 19.344 12.682 19.576 11.822 C 20 10.267 20 7.009 20 7.009 C 20 7.009 19.987 3.76 19.563 2.196 Z M 7.997 10.015 L 7.997 4.007 L 13.184 7.011 L 7.997 10.015 Z" fill="currentColor" fill-rule="nonzero"></path>
</svg>